solid x_min
facet normal -1.0 0.0 0.0
outer loop
vertex 0.05 0.032 0.0155
vertex 0.05 0.032 0.0115
vertex 0.05 0.016 0.0155
endloop
endfacet
facet normal -1.0 0.0 0.0
outer loop
vertex 0.05 0.032 0.0115
vertex 0.05 0.016 0.0115
vertex 0.05 0.016 0.0155
endloop
endfacet
endsolid x_min
solid x_max
facet normal 1.0 0.0 0.0
outer loop
vertex 0.066 0.016 0.0155
vertex 0.066 0.032 0.0115
vertex 0.066 0.032 0.0155
endloop
endfacet
facet normal 1.0 0.0 0.0
outer loop
vertex 0.066 0.016 0.0155
vertex 0.066 0.016 0.0115
vertex 0.066 0.032 0.0115
endloop
endfacet
endsolid x_max
solid y_min
facet normal 0.0 -1.0 0.0
outer loop
vertex 0.05 0.016 0.0115
vertex 0.066 0.016 0.0115
vertex 0.066 0.016 0.0155
endloop
endfacet
facet normal 0.0 -1.0 0.0
outer loop
vertex 0.05 0.016 0.0155
vertex 0.05 0.016 0.0115
vertex 0.066 0.016 0.0155
endloop
endfacet
endsolid y_min
solid y_max
facet normal 0.0 1.0 0.0
outer loop
vertex 0.066 0.032 0.0155
vertex 0.066 0.032 0.0115
vertex 0.05 0.032 0.0115
endloop
endfacet
facet normal 0.0 1.0 0.0
outer loop
vertex 0.066 0.032 0.0155
vertex 0.05 0.032 0.0115
vertex 0.05 0.032 0.0155
endloop
endfacet
endsolid y_max
solid z_min
facet normal 0.0 0.0 -1.0
outer loop
vertex 0.05 0.016 0.0115
vertex 0.05 0.032 0.0115
vertex 0.066 0.032 0.0115
endloop
endfacet
facet normal 0.0 0.0 -1.0
outer loop
vertex 0.066 0.016 0.0115
vertex 0.05 0.016 0.0115
vertex 0.066 0.032 0.0115
endloop
endfacet
endsolid z_min
solid z_max
facet normal 0.0 0.0 1.0
outer loop
vertex 0.066 0.032 0.0155
vertex 0.05 0.032 0.0155
vertex 0.05 0.016 0.0155
endloop
endfacet
facet normal 0.0 0.0 1.0
outer loop
vertex 0.066 0.032 0.0155
vertex 0.05 0.016 0.0155
vertex 0.066 0.016 0.0155
endloop
endfacet
endsolid z_max
