solid x_min
facet normal -0.99999994 0.0 0.0
outer loop
vertex 0.0845 0.050499998 0.008
vertex 0.0845 0.050499998 0.0
vertex 0.0845 0.0415 0.008
endloop
endfacet
facet normal -0.99999994 0.0 0.0
outer loop
vertex 0.0845 0.050499998 0.0
vertex 0.0845 0.0415 0.0
vertex 0.0845 0.0415 0.008
endloop
endfacet
endsolid x_min
solid x_max
facet normal 0.99999994 0.0 0.0
outer loop
vertex 0.091 0.0415 0.008
vertex 0.091 0.050499998 0.0
vertex 0.091 0.050499998 0.008
endloop
endfacet
facet normal 0.99999994 0.0 0.0
outer loop
vertex 0.091 0.0415 0.008
vertex 0.091 0.0415 0.0
vertex 0.091 0.050499998 0.0
endloop
endfacet
endsolid x_max
solid y_min
facet normal 0.0 -1.0 0.0
outer loop
vertex 0.0845 0.0415 0.0
vertex 0.091 0.0415 0.0
vertex 0.091 0.0415 0.008
endloop
endfacet
facet normal 0.0 -1.0 0.0
outer loop
vertex 0.0845 0.0415 0.008
vertex 0.0845 0.0415 0.0
vertex 0.091 0.0415 0.008
endloop
endfacet
endsolid y_min
solid y_max
facet normal 0.0 1.0 0.0
outer loop
vertex 0.091 0.050499998 0.008
vertex 0.091 0.050499998 0.0
vertex 0.0845 0.050499998 0.0
endloop
endfacet
facet normal 0.0 1.0 0.0
outer loop
vertex 0.091 0.050499998 0.008
vertex 0.0845 0.050499998 0.0
vertex 0.0845 0.050499998 0.008
endloop
endfacet
endsolid y_max
solid z_min
facet normal 0.0 0.0 -1.0
outer loop
vertex 0.0845 0.0415 0.0
vertex 0.0845 0.050499998 0.0
vertex 0.091 0.050499998 0.0
endloop
endfacet
facet normal 0.0 0.0 -1.0
outer loop
vertex 0.091 0.0415 0.0
vertex 0.0845 0.0415 0.0
vertex 0.091 0.050499998 0.0
endloop
endfacet
endsolid z_min
solid z_max
facet normal 0.0 0.0 1.0
outer loop
vertex 0.091 0.050499998 0.008
vertex 0.0845 0.050499998 0.008
vertex 0.0845 0.0415 0.008
endloop
endfacet
facet normal 0.0 0.0 1.0
outer loop
vertex 0.091 0.050499998 0.008
vertex 0.0845 0.0415 0.008
vertex 0.091 0.0415 0.008
endloop
endfacet
endsolid z_max
