solid patch058
facet normal 1.0 0.0 0.0
outer loop
vertex 0.0339 0.00546 0.00254
vertex 0.0339 0.00476 0.00884
vertex 0.0339 0.00476 0.00254
endloop
endfacet
facet normal 1.0 0.0 0.0
outer loop
vertex 0.0339 0.00476 0.00884
vertex 0.0339 0.00546 0.00254
vertex 0.0339 0.00546 0.00884
endloop
endfacet
endsolid patch058
solid patch059
facet normal 0.0 1.0 0.0
outer loop
vertex 0.0332 0.00546 0.00884
vertex 0.0339 0.00546 0.00254
vertex 0.0332 0.00546 0.00254
endloop
endfacet
facet normal 0.0 1.0 0.0
outer loop
vertex 0.0339 0.00546 0.00254
vertex 0.0332 0.00546 0.00884
vertex 0.0339 0.00546 0.00884
endloop
endfacet
endsolid patch059
solid patch060
facet normal 0.0 0.0 1.0
outer loop
vertex 0.0339 0.00476 0.00884
vertex 0.0332 0.00546 0.00884
vertex 0.0332 0.00476 0.00884
endloop
endfacet
facet normal 0.0 0.0 1.0
outer loop
vertex 0.0332 0.00546 0.00884
vertex 0.0339 0.00476 0.00884
vertex 0.0339 0.00546 0.00884
endloop
endfacet
endsolid patch060
solid patch061
facet normal -1.0 0.0 0.0
outer loop
vertex 0.0332 0.00546 0.00884
vertex 0.0332 0.00476 0.00254
vertex 0.0332 0.00476 0.00884
endloop
endfacet
facet normal -1.0 0.0 0.0
outer loop
vertex 0.0332 0.00476 0.00254
vertex 0.0332 0.00546 0.00884
vertex 0.0332 0.00546 0.00254
endloop
endfacet
endsolid patch061
solid patch063
facet normal 0.0 -1.0 0.0
outer loop
vertex 0.0339 0.00476 0.00884
vertex 0.0332 0.00476 0.00254
vertex 0.0339 0.00476 0.00254
endloop
endfacet
facet normal 0.0 -1.0 0.0
outer loop
vertex 0.0332 0.00476 0.00254
vertex 0.0339 0.00476 0.00884
vertex 0.0332 0.00476 0.00884
endloop
endfacet
endsolid patch063
solid patch069
facet normal 1.0 0.0 0.0
outer loop
vertex 0.05168 0.00546 0.00254
vertex 0.05168 0.00476 0.00884
vertex 0.05168 0.00476 0.00254
endloop
endfacet
facet normal 1.0 0.0 0.0
outer loop
vertex 0.05168 0.00476 0.00884
vertex 0.05168 0.00546 0.00254
vertex 0.05168 0.00546 0.00884
endloop
endfacet
endsolid patch069
solid patch070
facet normal 0.0 1.0 0.0
outer loop
vertex 0.05098 0.00546 0.00884
vertex 0.05168 0.00546 0.00254
vertex 0.05098 0.00546 0.00254
endloop
endfacet
facet normal 0.0 1.0 0.0
outer loop
vertex 0.05168 0.00546 0.00254
vertex 0.05098 0.00546 0.00884
vertex 0.05168 0.00546 0.00884
endloop
endfacet
endsolid patch070
solid patch071
facet normal 0.0 0.0 1.0
outer loop
vertex 0.05168 0.00476 0.00884
vertex 0.05098 0.00546 0.00884
vertex 0.05098 0.00476 0.00884
endloop
endfacet
facet normal 0.0 0.0 1.0
outer loop
vertex 0.05098 0.00546 0.00884
vertex 0.05168 0.00476 0.00884
vertex 0.05168 0.00546 0.00884
endloop
endfacet
endsolid patch071
solid patch072
facet normal -1.0 0.0 0.0
outer loop
vertex 0.05098 0.00546 0.00884
vertex 0.05098 0.00476 0.00254
vertex 0.05098 0.00476 0.00884
endloop
endfacet
facet normal -1.0 0.0 0.0
outer loop
vertex 0.05098 0.00476 0.00254
vertex 0.05098 0.00546 0.00884
vertex 0.05098 0.00546 0.00254
endloop
endfacet
endsolid patch072
solid patch074
facet normal 0.0 -1.0 0.0
outer loop
vertex 0.05168 0.00476 0.00884
vertex 0.05098 0.00476 0.00254
vertex 0.05168 0.00476 0.00254
endloop
endfacet
facet normal 0.0 -1.0 0.0
outer loop
vertex 0.05098 0.00476 0.00254
vertex 0.05168 0.00476 0.00884
vertex 0.05098 0.00476 0.00884
endloop
endfacet
endsolid patch074
solid patch080
facet normal 1.0 0.0 0.0
outer loop
vertex 0.07708 0.00292 0.00254
vertex 0.07708 0.00222 0.00884
vertex 0.07708 0.00222 0.00254
endloop
endfacet
facet normal 1.0 0.0 0.0
outer loop
vertex 0.07708 0.00222 0.00884
vertex 0.07708 0.00292 0.00254
vertex 0.07708 0.00292 0.00884
endloop
endfacet
endsolid patch080
solid patch081
facet normal 0.0 1.0 0.0
outer loop
vertex 0.07638 0.00292 0.00884
vertex 0.07708 0.00292 0.00254
vertex 0.07638 0.00292 0.00254
endloop
endfacet
facet normal 0.0 1.0 0.0
outer loop
vertex 0.07708 0.00292 0.00254
vertex 0.07638 0.00292 0.00884
vertex 0.07708 0.00292 0.00884
endloop
endfacet
endsolid patch081
solid patch082
facet normal 0.0 0.0 1.0
outer loop
vertex 0.07708 0.00222 0.00884
vertex 0.07638 0.00292 0.00884
vertex 0.07638 0.00222 0.00884
endloop
endfacet
facet normal 0.0 0.0 1.0
outer loop
vertex 0.07638 0.00292 0.00884
vertex 0.07708 0.00222 0.00884
vertex 0.07708 0.00292 0.00884
endloop
endfacet
endsolid patch082
solid patch083
facet normal -1.0 0.0 0.0
outer loop
vertex 0.07638 0.00292 0.00884
vertex 0.07638 0.00222 0.00254
vertex 0.07638 0.00222 0.00884
endloop
endfacet
facet normal -1.0 0.0 0.0
outer loop
vertex 0.07638 0.00222 0.00254
vertex 0.07638 0.00292 0.00884
vertex 0.07638 0.00292 0.00254
endloop
endfacet
endsolid patch083
solid patch085
facet normal 0.0 -1.0 0.0
outer loop
vertex 0.07708 0.00222 0.00884
vertex 0.07638 0.00222 0.00254
vertex 0.07708 0.00222 0.00254
endloop
endfacet
facet normal 0.0 -1.0 0.0
outer loop
vertex 0.07638 0.00222 0.00254
vertex 0.07708 0.00222 0.00884
vertex 0.07638 0.00222 0.00884
endloop
endfacet
endsolid patch085
solid patch091
facet normal 1.0 0.0 0.0
outer loop
vertex 0.06692 0.00292 0.00254
vertex 0.06692 0.00222 0.00884
vertex 0.06692 0.00222 0.00254
endloop
endfacet
facet normal 1.0 0.0 0.0
outer loop
vertex 0.06692 0.00222 0.00884
vertex 0.06692 0.00292 0.00254
vertex 0.06692 0.00292 0.00884
endloop
endfacet
endsolid patch091
solid patch092
facet normal 0.0 1.0 0.0
outer loop
vertex 0.06622001 0.00292 0.00884
vertex 0.06692 0.00292 0.00254
vertex 0.06622001 0.00292 0.00254
endloop
endfacet
facet normal 0.0 1.0 0.0
outer loop
vertex 0.06692 0.00292 0.00254
vertex 0.06622001 0.00292 0.00884
vertex 0.06692 0.00292 0.00884
endloop
endfacet
endsolid patch092
solid patch093
facet normal 0.0 0.0 1.0
outer loop
vertex 0.06692 0.00222 0.00884
vertex 0.06622001 0.00292 0.00884
vertex 0.06622001 0.00222 0.00884
endloop
endfacet
facet normal 0.0 0.0 1.0
outer loop
vertex 0.06622001 0.00292 0.00884
vertex 0.06692 0.00222 0.00884
vertex 0.06692 0.00292 0.00884
endloop
endfacet
endsolid patch093
solid patch094
facet normal -1.0 0.0 0.0
outer loop
vertex 0.06622001 0.00292 0.00884
vertex 0.06622001 0.00222 0.00254
vertex 0.06622001 0.00222 0.00884
endloop
endfacet
facet normal -1.0 0.0 0.0
outer loop
vertex 0.06622001 0.00222 0.00254
vertex 0.06622001 0.00292 0.00884
vertex 0.06622001 0.00292 0.00254
endloop
endfacet
endsolid patch094
solid patch096
facet normal 0.0 -1.0 0.0
outer loop
vertex 0.06692 0.00222 0.00884
vertex 0.06622001 0.00222 0.00254
vertex 0.06692 0.00222 0.00254
endloop
endfacet
facet normal 0.0 -1.0 0.0
outer loop
vertex 0.06622001 0.00222 0.00254
vertex 0.06692 0.00222 0.00884
vertex 0.06622001 0.00222 0.00884
endloop
endfacet
endsolid patch096
solid patch0102
facet normal 1.0 0.0 0.0
outer loop
vertex 0.07454 0.00546 0.00254
vertex 0.07454 0.00476 0.00884
vertex 0.07454 0.00476 0.00254
endloop
endfacet
facet normal 1.0 0.0 0.0
outer loop
vertex 0.07454 0.00476 0.00884
vertex 0.07454 0.00546 0.00254
vertex 0.07454 0.00546 0.00884
endloop
endfacet
endsolid patch0102
solid patch0103
facet normal 0.0 1.0 0.0
outer loop
vertex 0.07384 0.00546 0.00884
vertex 0.07454 0.00546 0.00254
vertex 0.07384 0.00546 0.00254
endloop
endfacet
facet normal 0.0 1.0 0.0
outer loop
vertex 0.07454 0.00546 0.00254
vertex 0.07384 0.00546 0.00884
vertex 0.07454 0.00546 0.00884
endloop
endfacet
endsolid patch0103
solid patch0104
facet normal 0.0 0.0 1.0
outer loop
vertex 0.07454 0.00476 0.00884
vertex 0.07384 0.00546 0.00884
vertex 0.07384 0.00476 0.00884
endloop
endfacet
facet normal 0.0 0.0 1.0
outer loop
vertex 0.07384 0.00546 0.00884
vertex 0.07454 0.00476 0.00884
vertex 0.07454 0.00546 0.00884
endloop
endfacet
endsolid patch0104
solid patch0105
facet normal -1.0 0.0 0.0
outer loop
vertex 0.07384 0.00546 0.00884
vertex 0.07384 0.00476 0.00254
vertex 0.07384 0.00476 0.00884
endloop
endfacet
facet normal -1.0 0.0 0.0
outer loop
vertex 0.07384 0.00476 0.00254
vertex 0.07384 0.00546 0.00884
vertex 0.07384 0.00546 0.00254
endloop
endfacet
endsolid patch0105
solid patch0107
facet normal 0.0 -1.0 0.0
outer loop
vertex 0.07454 0.00476 0.00884
vertex 0.07384 0.00476 0.00254
vertex 0.07454 0.00476 0.00254
endloop
endfacet
facet normal 0.0 -1.0 0.0
outer loop
vertex 0.07384 0.00476 0.00254
vertex 0.07454 0.00476 0.00884
vertex 0.07384 0.00476 0.00884
endloop
endfacet
endsolid patch0107
solid patch0113
facet normal 1.0 0.0 0.0
outer loop
vertex 0.05422 0.00292 0.00254
vertex 0.05422 0.00222 0.00884
vertex 0.05422 0.00222 0.00254
endloop
endfacet
facet normal 1.0 0.0 0.0
outer loop
vertex 0.05422 0.00222 0.00884
vertex 0.05422 0.00292 0.00254
vertex 0.05422 0.00292 0.00884
endloop
endfacet
endsolid patch0113
solid patch0114
facet normal 0.0 1.0 0.0
outer loop
vertex 0.05352 0.00292 0.00884
vertex 0.05422 0.00292 0.00254
vertex 0.05352 0.00292 0.00254
endloop
endfacet
facet normal 0.0 1.0 0.0
outer loop
vertex 0.05422 0.00292 0.00254
vertex 0.05352 0.00292 0.00884
vertex 0.05422 0.00292 0.00884
endloop
endfacet
endsolid patch0114
solid patch0115
facet normal 0.0 0.0 1.0
outer loop
vertex 0.05422 0.00222 0.00884
vertex 0.05352 0.00292 0.00884
vertex 0.05352 0.00222 0.00884
endloop
endfacet
facet normal 0.0 0.0 1.0
outer loop
vertex 0.05352 0.00292 0.00884
vertex 0.05422 0.00222 0.00884
vertex 0.05422 0.00292 0.00884
endloop
endfacet
endsolid patch0115
solid patch0116
facet normal -1.0 0.0 0.0
outer loop
vertex 0.05352 0.00292 0.00884
vertex 0.05352 0.00222 0.00254
vertex 0.05352 0.00222 0.00884
endloop
endfacet
facet normal -1.0 0.0 0.0
outer loop
vertex 0.05352 0.00222 0.00254
vertex 0.05352 0.00292 0.00884
vertex 0.05352 0.00292 0.00254
endloop
endfacet
endsolid patch0116
solid patch0118
facet normal 0.0 -1.0 0.0
outer loop
vertex 0.05422 0.00222 0.00884
vertex 0.05352 0.00222 0.00254
vertex 0.05422 0.00222 0.00254
endloop
endfacet
facet normal 0.0 -1.0 0.0
outer loop
vertex 0.05352 0.00222 0.00254
vertex 0.05422 0.00222 0.00884
vertex 0.05352 0.00222 0.00884
endloop
endfacet
endsolid patch0118
solid patch0124
facet normal 1.0 0.0 0.0
outer loop
vertex 0.06184 0.00546 0.00254
vertex 0.06184 0.00476 0.00884
vertex 0.06184 0.00476 0.00254
endloop
endfacet
facet normal 1.0 0.0 0.0
outer loop
vertex 0.06184 0.00476 0.00884
vertex 0.06184 0.00546 0.00254
vertex 0.06184 0.00546 0.00884
endloop
endfacet
endsolid patch0124
solid patch0125
facet normal 0.0 1.0 0.0
outer loop
vertex 0.06114 0.00546 0.00884
vertex 0.06184 0.00546 0.00254
vertex 0.06114 0.00546 0.00254
endloop
endfacet
facet normal 0.0 1.0 0.0
outer loop
vertex 0.06184 0.00546 0.00254
vertex 0.06114 0.00546 0.00884
vertex 0.06184 0.00546 0.00884
endloop
endfacet
endsolid patch0125
solid patch0126
facet normal 0.0 0.0 1.0
outer loop
vertex 0.06184 0.00476 0.00884
vertex 0.06114 0.00546 0.00884
vertex 0.06114 0.00476 0.00884
endloop
endfacet
facet normal 0.0 0.0 1.0
outer loop
vertex 0.06114 0.00546 0.00884
vertex 0.06184 0.00476 0.00884
vertex 0.06184 0.00546 0.00884
endloop
endfacet
endsolid patch0126
solid patch0127
facet normal -1.0 0.0 0.0
outer loop
vertex 0.06114 0.00546 0.00884
vertex 0.06114 0.00476 0.00254
vertex 0.06114 0.00476 0.00884
endloop
endfacet
facet normal -1.0 0.0 0.0
outer loop
vertex 0.06114 0.00476 0.00254
vertex 0.06114 0.00546 0.00884
vertex 0.06114 0.00546 0.00254
endloop
endfacet
endsolid patch0127
solid patch0129
facet normal 0.0 -1.0 0.0
outer loop
vertex 0.06184 0.00476 0.00884
vertex 0.06114 0.00476 0.00254
vertex 0.06184 0.00476 0.00254
endloop
endfacet
facet normal 0.0 -1.0 0.0
outer loop
vertex 0.06114 0.00476 0.00254
vertex 0.06184 0.00476 0.00884
vertex 0.06114 0.00476 0.00884
endloop
endfacet
endsolid patch0129
solid patch0135
facet normal 1.0 0.0 0.0
outer loop
vertex 0.06184 0.00292 0.00254
vertex 0.06184 0.00222 0.00884
vertex 0.06184 0.00222 0.00254
endloop
endfacet
facet normal 1.0 0.0 0.0
outer loop
vertex 0.06184 0.00222 0.00884
vertex 0.06184 0.00292 0.00254
vertex 0.06184 0.00292 0.00884
endloop
endfacet
endsolid patch0135
solid patch0136
facet normal 0.0 1.0 0.0
outer loop
vertex 0.06114 0.00292 0.00884
vertex 0.06184 0.00292 0.00254
vertex 0.06114 0.00292 0.00254
endloop
endfacet
facet normal 0.0 1.0 0.0
outer loop
vertex 0.06184 0.00292 0.00254
vertex 0.06114 0.00292 0.00884
vertex 0.06184 0.00292 0.00884
endloop
endfacet
endsolid patch0136
solid patch0137
facet normal 0.0 0.0 1.0
outer loop
vertex 0.06184 0.00222 0.00884
vertex 0.06114 0.00292 0.00884
vertex 0.06114 0.00222 0.00884
endloop
endfacet
facet normal 0.0 0.0 1.0
outer loop
vertex 0.06114 0.00292 0.00884
vertex 0.06184 0.00222 0.00884
vertex 0.06184 0.00292 0.00884
endloop
endfacet
endsolid patch0137
solid patch0138
facet normal -1.0 0.0 0.0
outer loop
vertex 0.06114 0.00292 0.00884
vertex 0.06114 0.00222 0.00254
vertex 0.06114 0.00222 0.00884
endloop
endfacet
facet normal -1.0 0.0 0.0
outer loop
vertex 0.06114 0.00222 0.00254
vertex 0.06114 0.00292 0.00884
vertex 0.06114 0.00292 0.00254
endloop
endfacet
endsolid patch0138
solid patch0140
facet normal 0.0 -1.0 0.0
outer loop
vertex 0.06184 0.00222 0.00884
vertex 0.06114 0.00222 0.00254
vertex 0.06184 0.00222 0.00254
endloop
endfacet
facet normal 0.0 -1.0 0.0
outer loop
vertex 0.06114 0.00222 0.00254
vertex 0.06184 0.00222 0.00884
vertex 0.06114 0.00222 0.00884
endloop
endfacet
endsolid patch0140
solid patch0146
facet normal 1.0 0.0 0.0
outer loop
vertex 0.0593 0.00292 0.00254
vertex 0.0593 0.00222 0.00884
vertex 0.0593 0.00222 0.00254
endloop
endfacet
facet normal 1.0 0.0 0.0
outer loop
vertex 0.0593 0.00222 0.00884
vertex 0.0593 0.00292 0.00254
vertex 0.0593 0.00292 0.00884
endloop
endfacet
endsolid patch0146
solid patch0147
facet normal 0.0 1.0 0.0
outer loop
vertex 0.0586 0.00292 0.00884
vertex 0.0593 0.00292 0.00254
vertex 0.0586 0.00292 0.00254
endloop
endfacet
facet normal 0.0 1.0 0.0
outer loop
vertex 0.0593 0.00292 0.00254
vertex 0.0586 0.00292 0.00884
vertex 0.0593 0.00292 0.00884
endloop
endfacet
endsolid patch0147
solid patch0148
facet normal 0.0 0.0 1.0
outer loop
vertex 0.0593 0.00222 0.00884
vertex 0.0586 0.00292 0.00884
vertex 0.0586 0.00222 0.00884
endloop
endfacet
facet normal 0.0 0.0 1.0
outer loop
vertex 0.0586 0.00292 0.00884
vertex 0.0593 0.00222 0.00884
vertex 0.0593 0.00292 0.00884
endloop
endfacet
endsolid patch0148
solid patch0149
facet normal -1.0 0.0 0.0
outer loop
vertex 0.0586 0.00292 0.00884
vertex 0.0586 0.00222 0.00254
vertex 0.0586 0.00222 0.00884
endloop
endfacet
facet normal -1.0 0.0 0.0
outer loop
vertex 0.0586 0.00222 0.00254
vertex 0.0586 0.00292 0.00884
vertex 0.0586 0.00292 0.00254
endloop
endfacet
endsolid patch0149
solid patch0151
facet normal 0.0 -1.0 0.0
outer loop
vertex 0.0593 0.00222 0.00884
vertex 0.0586 0.00222 0.00254
vertex 0.0593 0.00222 0.00254
endloop
endfacet
facet normal 0.0 -1.0 0.0
outer loop
vertex 0.0586 0.00222 0.00254
vertex 0.0593 0.00222 0.00884
vertex 0.0586 0.00222 0.00884
endloop
endfacet
endsolid patch0151
solid patch0157
facet normal 1.0 0.0 0.0
outer loop
vertex 0.06438 0.00546 0.00254
vertex 0.06438 0.00476 0.00884
vertex 0.06438 0.00476 0.00254
endloop
endfacet
facet normal 1.0 0.0 0.0
outer loop
vertex 0.06438 0.00476 0.00884
vertex 0.06438 0.00546 0.00254
vertex 0.06438 0.00546 0.00884
endloop
endfacet
endsolid patch0157
solid patch0158
facet normal 0.0 1.0 0.0
outer loop
vertex 0.06368 0.00546 0.00884
vertex 0.06438 0.00546 0.00254
vertex 0.06368 0.00546 0.00254
endloop
endfacet
facet normal 0.0 1.0 0.0
outer loop
vertex 0.06438 0.00546 0.00254
vertex 0.06368 0.00546 0.00884
vertex 0.06438 0.00546 0.00884
endloop
endfacet
endsolid patch0158
solid patch0159
facet normal 0.0 0.0 1.0
outer loop
vertex 0.06438 0.00476 0.00884
vertex 0.06368 0.00546 0.00884
vertex 0.06368 0.00476 0.00884
endloop
endfacet
facet normal 0.0 0.0 1.0
outer loop
vertex 0.06368 0.00546 0.00884
vertex 0.06438 0.00476 0.00884
vertex 0.06438 0.00546 0.00884
endloop
endfacet
endsolid patch0159
solid patch0160
facet normal -1.0 0.0 0.0
outer loop
vertex 0.06368 0.00546 0.00884
vertex 0.06368 0.00476 0.00254
vertex 0.06368 0.00476 0.00884
endloop
endfacet
facet normal -1.0 0.0 0.0
outer loop
vertex 0.06368 0.00476 0.00254
vertex 0.06368 0.00546 0.00884
vertex 0.06368 0.00546 0.00254
endloop
endfacet
endsolid patch0160
solid patch0162
facet normal 0.0 -1.0 0.0
outer loop
vertex 0.06438 0.00476 0.00884
vertex 0.06368 0.00476 0.00254
vertex 0.06438 0.00476 0.00254
endloop
endfacet
facet normal 0.0 -1.0 0.0
outer loop
vertex 0.06368 0.00476 0.00254
vertex 0.06438 0.00476 0.00884
vertex 0.06368 0.00476 0.00884
endloop
endfacet
endsolid patch0162
solid patch0168
facet normal 1.0 0.0 0.0
outer loop
vertex 0.06946 0.00546 0.00254
vertex 0.06946 0.00476 0.00884
vertex 0.06946 0.00476 0.00254
endloop
endfacet
facet normal 1.0 0.0 0.0
outer loop
vertex 0.06946 0.00476 0.00884
vertex 0.06946 0.00546 0.00254
vertex 0.06946 0.00546 0.00884
endloop
endfacet
endsolid patch0168
solid patch0169
facet normal 0.0 1.0 0.0
outer loop
vertex 0.06876001 0.00546 0.00884
vertex 0.06946 0.00546 0.00254
vertex 0.06876001 0.00546 0.00254
endloop
endfacet
facet normal 0.0 1.0 0.0
outer loop
vertex 0.06946 0.00546 0.00254
vertex 0.06876001 0.00546 0.00884
vertex 0.06946 0.00546 0.00884
endloop
endfacet
endsolid patch0169
solid patch0170
facet normal 0.0 0.0 1.0
outer loop
vertex 0.06946 0.00476 0.00884
vertex 0.06876001 0.00546 0.00884
vertex 0.06876001 0.00476 0.00884
endloop
endfacet
facet normal 0.0 0.0 1.0
outer loop
vertex 0.06876001 0.00546 0.00884
vertex 0.06946 0.00476 0.00884
vertex 0.06946 0.00546 0.00884
endloop
endfacet
endsolid patch0170
solid patch0171
facet normal -1.0 0.0 0.0
outer loop
vertex 0.06876001 0.00546 0.00884
vertex 0.06876001 0.00476 0.00254
vertex 0.06876001 0.00476 0.00884
endloop
endfacet
facet normal -1.0 0.0 0.0
outer loop
vertex 0.06876001 0.00476 0.00254
vertex 0.06876001 0.00546 0.00884
vertex 0.06876001 0.00546 0.00254
endloop
endfacet
endsolid patch0171
solid patch0173
facet normal 0.0 -1.0 0.0
outer loop
vertex 0.06946 0.00476 0.00884
vertex 0.06876001 0.00476 0.00254
vertex 0.06946 0.00476 0.00254
endloop
endfacet
facet normal 0.0 -1.0 0.0
outer loop
vertex 0.06876001 0.00476 0.00254
vertex 0.06946 0.00476 0.00884
vertex 0.06876001 0.00476 0.00884
endloop
endfacet
endsolid patch0173
solid patch0179
facet normal 1.0 0.0 0.0
outer loop
vertex 0.06692 0.00546 0.00254
vertex 0.06692 0.00476 0.00884
vertex 0.06692 0.00476 0.00254
endloop
endfacet
facet normal 1.0 0.0 0.0
outer loop
vertex 0.06692 0.00476 0.00884
vertex 0.06692 0.00546 0.00254
vertex 0.06692 0.00546 0.00884
endloop
endfacet
endsolid patch0179
solid patch0180
facet normal 0.0 1.0 0.0
outer loop
vertex 0.06622001 0.00546 0.00884
vertex 0.06692 0.00546 0.00254
vertex 0.06622001 0.00546 0.00254
endloop
endfacet
facet normal 0.0 1.0 0.0
outer loop
vertex 0.06692 0.00546 0.00254
vertex 0.06622001 0.00546 0.00884
vertex 0.06692 0.00546 0.00884
endloop
endfacet
endsolid patch0180
solid patch0181
facet normal 0.0 0.0 1.0
outer loop
vertex 0.06692 0.00476 0.00884
vertex 0.06622001 0.00546 0.00884
vertex 0.06622001 0.00476 0.00884
endloop
endfacet
facet normal 0.0 0.0 1.0
outer loop
vertex 0.06622001 0.00546 0.00884
vertex 0.06692 0.00476 0.00884
vertex 0.06692 0.00546 0.00884
endloop
endfacet
endsolid patch0181
solid patch0182
facet normal -1.0 0.0 0.0
outer loop
vertex 0.06622001 0.00546 0.00884
vertex 0.06622001 0.00476 0.00254
vertex 0.06622001 0.00476 0.00884
endloop
endfacet
facet normal -1.0 0.0 0.0
outer loop
vertex 0.06622001 0.00476 0.00254
vertex 0.06622001 0.00546 0.00884
vertex 0.06622001 0.00546 0.00254
endloop
endfacet
endsolid patch0182
solid patch0184
facet normal 0.0 -1.0 0.0
outer loop
vertex 0.06692 0.00476 0.00884
vertex 0.06622001 0.00476 0.00254
vertex 0.06692 0.00476 0.00254
endloop
endfacet
facet normal 0.0 -1.0 0.0
outer loop
vertex 0.06622001 0.00476 0.00254
vertex 0.06692 0.00476 0.00884
vertex 0.06622001 0.00476 0.00884
endloop
endfacet
endsolid patch0184
solid patch0190
facet normal 1.0 0.0 0.0
outer loop
vertex 0.06946 0.00292 0.00254
vertex 0.06946 0.00222 0.00884
vertex 0.06946 0.00222 0.00254
endloop
endfacet
facet normal 1.0 0.0 0.0
outer loop
vertex 0.06946 0.00222 0.00884
vertex 0.06946 0.00292 0.00254
vertex 0.06946 0.00292 0.00884
endloop
endfacet
endsolid patch0190
solid patch0191
facet normal 0.0 1.0 0.0
outer loop
vertex 0.06876001 0.00292 0.00884
vertex 0.06946 0.00292 0.00254
vertex 0.06876001 0.00292 0.00254
endloop
endfacet
facet normal 0.0 1.0 0.0
outer loop
vertex 0.06946 0.00292 0.00254
vertex 0.06876001 0.00292 0.00884
vertex 0.06946 0.00292 0.00884
endloop
endfacet
endsolid patch0191
solid patch0192
facet normal 0.0 0.0 1.0
outer loop
vertex 0.06946 0.00222 0.00884
vertex 0.06876001 0.00292 0.00884
vertex 0.06876001 0.00222 0.00884
endloop
endfacet
facet normal 0.0 0.0 1.0
outer loop
vertex 0.06876001 0.00292 0.00884
vertex 0.06946 0.00222 0.00884
vertex 0.06946 0.00292 0.00884
endloop
endfacet
endsolid patch0192
solid patch0193
facet normal -1.0 0.0 0.0
outer loop
vertex 0.06876001 0.00292 0.00884
vertex 0.06876001 0.00222 0.00254
vertex 0.06876001 0.00222 0.00884
endloop
endfacet
facet normal -1.0 0.0 0.0
outer loop
vertex 0.06876001 0.00222 0.00254
vertex 0.06876001 0.00292 0.00884
vertex 0.06876001 0.00292 0.00254
endloop
endfacet
endsolid patch0193
solid patch0195
facet normal 0.0 -1.0 0.0
outer loop
vertex 0.06946 0.00222 0.00884
vertex 0.06876001 0.00222 0.00254
vertex 0.06946 0.00222 0.00254
endloop
endfacet
facet normal 0.0 -1.0 0.0
outer loop
vertex 0.06876001 0.00222 0.00254
vertex 0.06946 0.00222 0.00884
vertex 0.06876001 0.00222 0.00884
endloop
endfacet
endsolid patch0195
solid patch0201
facet normal 1.0 0.0 0.0
outer loop
vertex 0.0466 0.00546 0.00254
vertex 0.0466 0.00476 0.00884
vertex 0.0466 0.00476 0.00254
endloop
endfacet
facet normal 1.0 0.0 0.0
outer loop
vertex 0.0466 0.00476 0.00884
vertex 0.0466 0.00546 0.00254
vertex 0.0466 0.00546 0.00884
endloop
endfacet
endsolid patch0201
solid patch0202
facet normal 0.0 1.0 0.0
outer loop
vertex 0.0459 0.00546 0.00884
vertex 0.0466 0.00546 0.00254
vertex 0.0459 0.00546 0.00254
endloop
endfacet
facet normal 0.0 1.0 0.0
outer loop
vertex 0.0466 0.00546 0.00254
vertex 0.0459 0.00546 0.00884
vertex 0.0466 0.00546 0.00884
endloop
endfacet
endsolid patch0202
solid patch0203
facet normal 0.0 0.0 1.0
outer loop
vertex 0.0466 0.00476 0.00884
vertex 0.0459 0.00546 0.00884
vertex 0.0459 0.00476 0.00884
endloop
endfacet
facet normal 0.0 0.0 1.0
outer loop
vertex 0.0459 0.00546 0.00884
vertex 0.0466 0.00476 0.00884
vertex 0.0466 0.00546 0.00884
endloop
endfacet
endsolid patch0203
solid patch0204
facet normal -1.0 0.0 0.0
outer loop
vertex 0.0459 0.00546 0.00884
vertex 0.0459 0.00476 0.00254
vertex 0.0459 0.00476 0.00884
endloop
endfacet
facet normal -1.0 0.0 0.0
outer loop
vertex 0.0459 0.00476 0.00254
vertex 0.0459 0.00546 0.00884
vertex 0.0459 0.00546 0.00254
endloop
endfacet
endsolid patch0204
solid patch0206
facet normal 0.0 -1.0 0.0
outer loop
vertex 0.0466 0.00476 0.00884
vertex 0.0459 0.00476 0.00254
vertex 0.0466 0.00476 0.00254
endloop
endfacet
facet normal 0.0 -1.0 0.0
outer loop
vertex 0.0459 0.00476 0.00254
vertex 0.0466 0.00476 0.00884
vertex 0.0459 0.00476 0.00884
endloop
endfacet
endsolid patch0206
solid patch0212
facet normal 1.0 0.0 0.0
outer loop
vertex 0.03136 0.00546 0.00254
vertex 0.03136 0.00476 0.00884
vertex 0.03136 0.00476 0.00254
endloop
endfacet
facet normal 1.0 0.0 0.0
outer loop
vertex 0.03136 0.00476 0.00884
vertex 0.03136 0.00546 0.00254
vertex 0.03136 0.00546 0.00884
endloop
endfacet
endsolid patch0212
solid patch0213
facet normal 0.0 1.0 0.0
outer loop
vertex 0.03066 0.00546 0.00884
vertex 0.03136 0.00546 0.00254
vertex 0.03066 0.00546 0.00254
endloop
endfacet
facet normal 0.0 1.0 0.0
outer loop
vertex 0.03136 0.00546 0.00254
vertex 0.03066 0.00546 0.00884
vertex 0.03136 0.00546 0.00884
endloop
endfacet
endsolid patch0213
solid patch0214
facet normal 0.0 0.0 1.0
outer loop
vertex 0.03136 0.00476 0.00884
vertex 0.03066 0.00546 0.00884
vertex 0.03066 0.00476 0.00884
endloop
endfacet
facet normal 0.0 0.0 1.0
outer loop
vertex 0.03066 0.00546 0.00884
vertex 0.03136 0.00476 0.00884
vertex 0.03136 0.00546 0.00884
endloop
endfacet
endsolid patch0214
solid patch0215
facet normal -1.0 0.0 0.0
outer loop
vertex 0.03066 0.00546 0.00884
vertex 0.03066 0.00476 0.00254
vertex 0.03066 0.00476 0.00884
endloop
endfacet
facet normal -1.0 0.0 0.0
outer loop
vertex 0.03066 0.00476 0.00254
vertex 0.03066 0.00546 0.00884
vertex 0.03066 0.00546 0.00254
endloop
endfacet
endsolid patch0215
solid patch0217
facet normal 0.0 -1.0 0.0
outer loop
vertex 0.03136 0.00476 0.00884
vertex 0.03066 0.00476 0.00254
vertex 0.03136 0.00476 0.00254
endloop
endfacet
facet normal 0.0 -1.0 0.0
outer loop
vertex 0.03066 0.00476 0.00254
vertex 0.03136 0.00476 0.00884
vertex 0.03066 0.00476 0.00884
endloop
endfacet
endsolid patch0217
solid patch0223
facet normal 1.0 0.0 0.0
outer loop
vertex 0.02882 0.00546 0.00254
vertex 0.02882 0.00476 0.00884
vertex 0.02882 0.00476 0.00254
endloop
endfacet
facet normal 1.0 0.0 0.0
outer loop
vertex 0.02882 0.00476 0.00884
vertex 0.02882 0.00546 0.00254
vertex 0.02882 0.00546 0.00884
endloop
endfacet
endsolid patch0223
solid patch0224
facet normal 0.0 1.0 0.0
outer loop
vertex 0.02812 0.00546 0.00884
vertex 0.02882 0.00546 0.00254
vertex 0.02812 0.00546 0.00254
endloop
endfacet
facet normal 0.0 1.0 0.0
outer loop
vertex 0.02882 0.00546 0.00254
vertex 0.02812 0.00546 0.00884
vertex 0.02882 0.00546 0.00884
endloop
endfacet
endsolid patch0224
solid patch0225
facet normal 0.0 0.0 1.0
outer loop
vertex 0.02882 0.00476 0.00884
vertex 0.02812 0.00546 0.00884
vertex 0.02812 0.00476 0.00884
endloop
endfacet
facet normal 0.0 0.0 1.0
outer loop
vertex 0.02812 0.00546 0.00884
vertex 0.02882 0.00476 0.00884
vertex 0.02882 0.00546 0.00884
endloop
endfacet
endsolid patch0225
solid patch0226
facet normal -1.0 0.0 0.0
outer loop
vertex 0.02812 0.00546 0.00884
vertex 0.02812 0.00476 0.00254
vertex 0.02812 0.00476 0.00884
endloop
endfacet
facet normal -1.0 0.0 0.0
outer loop
vertex 0.02812 0.00476 0.00254
vertex 0.02812 0.00546 0.00884
vertex 0.02812 0.00546 0.00254
endloop
endfacet
endsolid patch0226
solid patch0228
facet normal 0.0 -1.0 0.0
outer loop
vertex 0.02882 0.00476 0.00884
vertex 0.02812 0.00476 0.00254
vertex 0.02882 0.00476 0.00254
endloop
endfacet
facet normal 0.0 -1.0 0.0
outer loop
vertex 0.02812 0.00476 0.00254
vertex 0.02882 0.00476 0.00884
vertex 0.02812 0.00476 0.00884
endloop
endfacet
endsolid patch0228
solid patch0234
facet normal 1.0 0.0 0.0
outer loop
vertex 0.03136 0.00292 0.00254
vertex 0.03136 0.00222 0.00884
vertex 0.03136 0.00222 0.00254
endloop
endfacet
facet normal 1.0 0.0 0.0
outer loop
vertex 0.03136 0.00222 0.00884
vertex 0.03136 0.00292 0.00254
vertex 0.03136 0.00292 0.00884
endloop
endfacet
endsolid patch0234
solid patch0235
facet normal 0.0 1.0 0.0
outer loop
vertex 0.03066 0.00292 0.00884
vertex 0.03136 0.00292 0.00254
vertex 0.03066 0.00292 0.00254
endloop
endfacet
facet normal 0.0 1.0 0.0
outer loop
vertex 0.03136 0.00292 0.00254
vertex 0.03066 0.00292 0.00884
vertex 0.03136 0.00292 0.00884
endloop
endfacet
endsolid patch0235
solid patch0236
facet normal 0.0 0.0 1.0
outer loop
vertex 0.03136 0.00222 0.00884
vertex 0.03066 0.00292 0.00884
vertex 0.03066 0.00222 0.00884
endloop
endfacet
facet normal 0.0 0.0 1.0
outer loop
vertex 0.03066 0.00292 0.00884
vertex 0.03136 0.00222 0.00884
vertex 0.03136 0.00292 0.00884
endloop
endfacet
endsolid patch0236
solid patch0237
facet normal -1.0 0.0 0.0
outer loop
vertex 0.03066 0.00292 0.00884
vertex 0.03066 0.00222 0.00254
vertex 0.03066 0.00222 0.00884
endloop
endfacet
facet normal -1.0 0.0 0.0
outer loop
vertex 0.03066 0.00222 0.00254
vertex 0.03066 0.00292 0.00884
vertex 0.03066 0.00292 0.00254
endloop
endfacet
endsolid patch0237
solid patch0239
facet normal 0.0 -1.0 0.0
outer loop
vertex 0.03136 0.00222 0.00884
vertex 0.03066 0.00222 0.00254
vertex 0.03136 0.00222 0.00254
endloop
endfacet
facet normal 0.0 -1.0 0.0
outer loop
vertex 0.03066 0.00222 0.00254
vertex 0.03136 0.00222 0.00884
vertex 0.03066 0.00222 0.00884
endloop
endfacet
endsolid patch0239
solid patch0245
facet normal 1.0 0.0 0.0
outer loop
vertex 0.04406 0.00546 0.00254
vertex 0.04406 0.00476 0.00884
vertex 0.04406 0.00476 0.00254
endloop
endfacet
facet normal 1.0 0.0 0.0
outer loop
vertex 0.04406 0.00476 0.00884
vertex 0.04406 0.00546 0.00254
vertex 0.04406 0.00546 0.00884
endloop
endfacet
endsolid patch0245
solid patch0246
facet normal 0.0 1.0 0.0
outer loop
vertex 0.04336 0.00546 0.00884
vertex 0.04406 0.00546 0.00254
vertex 0.04336 0.00546 0.00254
endloop
endfacet
facet normal 0.0 1.0 0.0
outer loop
vertex 0.04406 0.00546 0.00254
vertex 0.04336 0.00546 0.00884
vertex 0.04406 0.00546 0.00884
endloop
endfacet
endsolid patch0246
solid patch0247
facet normal 0.0 0.0 1.0
outer loop
vertex 0.04406 0.00476 0.00884
vertex 0.04336 0.00546 0.00884
vertex 0.04336 0.00476 0.00884
endloop
endfacet
facet normal 0.0 0.0 1.0
outer loop
vertex 0.04336 0.00546 0.00884
vertex 0.04406 0.00476 0.00884
vertex 0.04406 0.00546 0.00884
endloop
endfacet
endsolid patch0247
solid patch0248
facet normal -1.0 0.0 0.0
outer loop
vertex 0.04336 0.00546 0.00884
vertex 0.04336 0.00476 0.00254
vertex 0.04336 0.00476 0.00884
endloop
endfacet
facet normal -1.0 0.0 0.0
outer loop
vertex 0.04336 0.00476 0.00254
vertex 0.04336 0.00546 0.00884
vertex 0.04336 0.00546 0.00254
endloop
endfacet
endsolid patch0248
solid patch0250
facet normal 0.0 -1.0 0.0
outer loop
vertex 0.04406 0.00476 0.00884
vertex 0.04336 0.00476 0.00254
vertex 0.04406 0.00476 0.00254
endloop
endfacet
facet normal 0.0 -1.0 0.0
outer loop
vertex 0.04336 0.00476 0.00254
vertex 0.04406 0.00476 0.00884
vertex 0.04336 0.00476 0.00884
endloop
endfacet
endsolid patch0250
solid patch0256
facet normal 1.0 0.0 0.0
outer loop
vertex 0.04152 0.00546 0.00254
vertex 0.04152 0.00476 0.00884
vertex 0.04152 0.00476 0.00254
endloop
endfacet
facet normal 1.0 0.0 0.0
outer loop
vertex 0.04152 0.00476 0.00884
vertex 0.04152 0.00546 0.00254
vertex 0.04152 0.00546 0.00884
endloop
endfacet
endsolid patch0256
solid patch0257
facet normal 0.0 1.0 0.0
outer loop
vertex 0.04082 0.00546 0.00884
vertex 0.04152 0.00546 0.00254
vertex 0.04082 0.00546 0.00254
endloop
endfacet
facet normal 0.0 1.0 0.0
outer loop
vertex 0.04152 0.00546 0.00254
vertex 0.04082 0.00546 0.00884
vertex 0.04152 0.00546 0.00884
endloop
endfacet
endsolid patch0257
solid patch0258
facet normal 0.0 0.0 1.0
outer loop
vertex 0.04152 0.00476 0.00884
vertex 0.04082 0.00546 0.00884
vertex 0.04082 0.00476 0.00884
endloop
endfacet
facet normal 0.0 0.0 1.0
outer loop
vertex 0.04082 0.00546 0.00884
vertex 0.04152 0.00476 0.00884
vertex 0.04152 0.00546 0.00884
endloop
endfacet
endsolid patch0258
solid patch0259
facet normal -1.0 0.0 0.0
outer loop
vertex 0.04082 0.00546 0.00884
vertex 0.04082 0.00476 0.00254
vertex 0.04082 0.00476 0.00884
endloop
endfacet
facet normal -1.0 0.0 0.0
outer loop
vertex 0.04082 0.00476 0.00254
vertex 0.04082 0.00546 0.00884
vertex 0.04082 0.00546 0.00254
endloop
endfacet
endsolid patch0259
solid patch0261
facet normal 0.0 -1.0 0.0
outer loop
vertex 0.04152 0.00476 0.00884
vertex 0.04082 0.00476 0.00254
vertex 0.04152 0.00476 0.00254
endloop
endfacet
facet normal 0.0 -1.0 0.0
outer loop
vertex 0.04082 0.00476 0.00254
vertex 0.04152 0.00476 0.00884
vertex 0.04082 0.00476 0.00884
endloop
endfacet
endsolid patch0261
solid patch0267
facet normal 1.0 0.0 0.0
outer loop
vertex 0.05422 0.00546 0.00254
vertex 0.05422 0.00476 0.00884
vertex 0.05422 0.00476 0.00254
endloop
endfacet
facet normal 1.0 0.0 0.0
outer loop
vertex 0.05422 0.00476 0.00884
vertex 0.05422 0.00546 0.00254
vertex 0.05422 0.00546 0.00884
endloop
endfacet
endsolid patch0267
solid patch0268
facet normal 0.0 1.0 0.0
outer loop
vertex 0.05352 0.00546 0.00884
vertex 0.05422 0.00546 0.00254
vertex 0.05352 0.00546 0.00254
endloop
endfacet
facet normal 0.0 1.0 0.0
outer loop
vertex 0.05422 0.00546 0.00254
vertex 0.05352 0.00546 0.00884
vertex 0.05422 0.00546 0.00884
endloop
endfacet
endsolid patch0268
solid patch0269
facet normal 0.0 0.0 1.0
outer loop
vertex 0.05422 0.00476 0.00884
vertex 0.05352 0.00546 0.00884
vertex 0.05352 0.00476 0.00884
endloop
endfacet
facet normal 0.0 0.0 1.0
outer loop
vertex 0.05352 0.00546 0.00884
vertex 0.05422 0.00476 0.00884
vertex 0.05422 0.00546 0.00884
endloop
endfacet
endsolid patch0269
solid patch0270
facet normal -1.0 0.0 0.0
outer loop
vertex 0.05352 0.00546 0.00884
vertex 0.05352 0.00476 0.00254
vertex 0.05352 0.00476 0.00884
endloop
endfacet
facet normal -1.0 0.0 0.0
outer loop
vertex 0.05352 0.00476 0.00254
vertex 0.05352 0.00546 0.00884
vertex 0.05352 0.00546 0.00254
endloop
endfacet
endsolid patch0270
solid patch0272
facet normal 0.0 -1.0 0.0
outer loop
vertex 0.05422 0.00476 0.00884
vertex 0.05352 0.00476 0.00254
vertex 0.05422 0.00476 0.00254
endloop
endfacet
facet normal 0.0 -1.0 0.0
outer loop
vertex 0.05352 0.00476 0.00254
vertex 0.05422 0.00476 0.00884
vertex 0.05352 0.00476 0.00884
endloop
endfacet
endsolid patch0272
solid patch0278
facet normal 1.0 0.0 0.0
outer loop
vertex 0.0593 0.00546 0.00254
vertex 0.0593 0.00476 0.00884
vertex 0.0593 0.00476 0.00254
endloop
endfacet
facet normal 1.0 0.0 0.0
outer loop
vertex 0.0593 0.00476 0.00884
vertex 0.0593 0.00546 0.00254
vertex 0.0593 0.00546 0.00884
endloop
endfacet
endsolid patch0278
solid patch0279
facet normal 0.0 1.0 0.0
outer loop
vertex 0.0586 0.00546 0.00884
vertex 0.0593 0.00546 0.00254
vertex 0.0586 0.00546 0.00254
endloop
endfacet
facet normal 0.0 1.0 0.0
outer loop
vertex 0.0593 0.00546 0.00254
vertex 0.0586 0.00546 0.00884
vertex 0.0593 0.00546 0.00884
endloop
endfacet
endsolid patch0279
solid patch0280
facet normal 0.0 0.0 1.0
outer loop
vertex 0.0593 0.00476 0.00884
vertex 0.0586 0.00546 0.00884
vertex 0.0586 0.00476 0.00884
endloop
endfacet
facet normal 0.0 0.0 1.0
outer loop
vertex 0.0586 0.00546 0.00884
vertex 0.0593 0.00476 0.00884
vertex 0.0593 0.00546 0.00884
endloop
endfacet
endsolid patch0280
solid patch0281
facet normal -1.0 0.0 0.0
outer loop
vertex 0.0586 0.00546 0.00884
vertex 0.0586 0.00476 0.00254
vertex 0.0586 0.00476 0.00884
endloop
endfacet
facet normal -1.0 0.0 0.0
outer loop
vertex 0.0586 0.00476 0.00254
vertex 0.0586 0.00546 0.00884
vertex 0.0586 0.00546 0.00254
endloop
endfacet
endsolid patch0281
solid patch0283
facet normal 0.0 -1.0 0.0
outer loop
vertex 0.0593 0.00476 0.00884
vertex 0.0586 0.00476 0.00254
vertex 0.0593 0.00476 0.00254
endloop
endfacet
facet normal 0.0 -1.0 0.0
outer loop
vertex 0.0586 0.00476 0.00254
vertex 0.0593 0.00476 0.00884
vertex 0.0586 0.00476 0.00884
endloop
endfacet
endsolid patch0283
solid patch0289
facet normal 1.0 0.0 0.0
outer loop
vertex 0.07708 0.00546 0.00254
vertex 0.07708 0.00476 0.00884
vertex 0.07708 0.00476 0.00254
endloop
endfacet
facet normal 1.0 0.0 0.0
outer loop
vertex 0.07708 0.00476 0.00884
vertex 0.07708 0.00546 0.00254
vertex 0.07708 0.00546 0.00884
endloop
endfacet
endsolid patch0289
solid patch0290
facet normal 0.0 1.0 0.0
outer loop
vertex 0.07638 0.00546 0.00884
vertex 0.07708 0.00546 0.00254
vertex 0.07638 0.00546 0.00254
endloop
endfacet
facet normal 0.0 1.0 0.0
outer loop
vertex 0.07708 0.00546 0.00254
vertex 0.07638 0.00546 0.00884
vertex 0.07708 0.00546 0.00884
endloop
endfacet
endsolid patch0290
solid patch0291
facet normal 0.0 0.0 1.0
outer loop
vertex 0.07708 0.00476 0.00884
vertex 0.07638 0.00546 0.00884
vertex 0.07638 0.00476 0.00884
endloop
endfacet
facet normal 0.0 0.0 1.0
outer loop
vertex 0.07638 0.00546 0.00884
vertex 0.07708 0.00476 0.00884
vertex 0.07708 0.00546 0.00884
endloop
endfacet
endsolid patch0291
solid patch0292
facet normal -1.0 0.0 0.0
outer loop
vertex 0.07638 0.00546 0.00884
vertex 0.07638 0.00476 0.00254
vertex 0.07638 0.00476 0.00884
endloop
endfacet
facet normal -1.0 0.0 0.0
outer loop
vertex 0.07638 0.00476 0.00254
vertex 0.07638 0.00546 0.00884
vertex 0.07638 0.00546 0.00254
endloop
endfacet
endsolid patch0292
solid patch0294
facet normal 0.0 -1.0 0.0
outer loop
vertex 0.07708 0.00476 0.00884
vertex 0.07638 0.00476 0.00254
vertex 0.07708 0.00476 0.00254
endloop
endfacet
facet normal 0.0 -1.0 0.0
outer loop
vertex 0.07638 0.00476 0.00254
vertex 0.07708 0.00476 0.00884
vertex 0.07638 0.00476 0.00884
endloop
endfacet
endsolid patch0294
solid patch0300
facet normal 1.0 0.0 0.0
outer loop
vertex 0.072 0.00546 0.00254
vertex 0.072 0.00476 0.00884
vertex 0.072 0.00476 0.00254
endloop
endfacet
facet normal 1.0 0.0 0.0
outer loop
vertex 0.072 0.00476 0.00884
vertex 0.072 0.00546 0.00254
vertex 0.072 0.00546 0.00884
endloop
endfacet
endsolid patch0300
solid patch0301
facet normal 0.0 1.0 0.0
outer loop
vertex 0.07130001 0.00546 0.00884
vertex 0.072 0.00546 0.00254
vertex 0.07130001 0.00546 0.00254
endloop
endfacet
facet normal 0.0 1.0 0.0
outer loop
vertex 0.072 0.00546 0.00254
vertex 0.07130001 0.00546 0.00884
vertex 0.072 0.00546 0.00884
endloop
endfacet
endsolid patch0301
solid patch0302
facet normal 0.0 0.0 1.0
outer loop
vertex 0.072 0.00476 0.00884
vertex 0.07130001 0.00546 0.00884
vertex 0.07130001 0.00476 0.00884
endloop
endfacet
facet normal 0.0 0.0 1.0
outer loop
vertex 0.07130001 0.00546 0.00884
vertex 0.072 0.00476 0.00884
vertex 0.072 0.00546 0.00884
endloop
endfacet
endsolid patch0302
solid patch0303
facet normal -1.0 0.0 0.0
outer loop
vertex 0.07130001 0.00546 0.00884
vertex 0.07130001 0.00476 0.00254
vertex 0.07130001 0.00476 0.00884
endloop
endfacet
facet normal -1.0 0.0 0.0
outer loop
vertex 0.07130001 0.00476 0.00254
vertex 0.07130001 0.00546 0.00884
vertex 0.07130001 0.00546 0.00254
endloop
endfacet
endsolid patch0303
solid patch0305
facet normal 0.0 -1.0 0.0
outer loop
vertex 0.072 0.00476 0.00884
vertex 0.07130001 0.00476 0.00254
vertex 0.072 0.00476 0.00254
endloop
endfacet
facet normal 0.0 -1.0 0.0
outer loop
vertex 0.07130001 0.00476 0.00254
vertex 0.072 0.00476 0.00884
vertex 0.07130001 0.00476 0.00884
endloop
endfacet
endsolid patch0305
solid patch0311
facet normal 1.0 0.0 0.0
outer loop
vertex 0.05676 0.00546 0.00254
vertex 0.05676 0.00476 0.00884
vertex 0.05676 0.00476 0.00254
endloop
endfacet
facet normal 1.0 0.0 0.0
outer loop
vertex 0.05676 0.00476 0.00884
vertex 0.05676 0.00546 0.00254
vertex 0.05676 0.00546 0.00884
endloop
endfacet
endsolid patch0311
solid patch0312
facet normal 0.0 1.0 0.0
outer loop
vertex 0.05606 0.00546 0.00884
vertex 0.05676 0.00546 0.00254
vertex 0.05606 0.00546 0.00254
endloop
endfacet
facet normal 0.0 1.0 0.0
outer loop
vertex 0.05676 0.00546 0.00254
vertex 0.05606 0.00546 0.00884
vertex 0.05676 0.00546 0.00884
endloop
endfacet
endsolid patch0312
solid patch0313
facet normal 0.0 0.0 1.0
outer loop
vertex 0.05676 0.00476 0.00884
vertex 0.05606 0.00546 0.00884
vertex 0.05606 0.00476 0.00884
endloop
endfacet
facet normal 0.0 0.0 1.0
outer loop
vertex 0.05606 0.00546 0.00884
vertex 0.05676 0.00476 0.00884
vertex 0.05676 0.00546 0.00884
endloop
endfacet
endsolid patch0313
solid patch0314
facet normal -1.0 0.0 0.0
outer loop
vertex 0.05606 0.00546 0.00884
vertex 0.05606 0.00476 0.00254
vertex 0.05606 0.00476 0.00884
endloop
endfacet
facet normal -1.0 0.0 0.0
outer loop
vertex 0.05606 0.00476 0.00254
vertex 0.05606 0.00546 0.00884
vertex 0.05606 0.00546 0.00254
endloop
endfacet
endsolid patch0314
solid patch0316
facet normal 0.0 -1.0 0.0
outer loop
vertex 0.05676 0.00476 0.00884
vertex 0.05606 0.00476 0.00254
vertex 0.05676 0.00476 0.00254
endloop
endfacet
facet normal 0.0 -1.0 0.0
outer loop
vertex 0.05606 0.00476 0.00254
vertex 0.05676 0.00476 0.00884
vertex 0.05606 0.00476 0.00884
endloop
endfacet
endsolid patch0316
solid patch0322
facet normal 1.0 0.0 0.0
outer loop
vertex 0.04406 0.00292 0.00254
vertex 0.04406 0.00222 0.00884
vertex 0.04406 0.00222 0.00254
endloop
endfacet
facet normal 1.0 0.0 0.0
outer loop
vertex 0.04406 0.00222 0.00884
vertex 0.04406 0.00292 0.00254
vertex 0.04406 0.00292 0.00884
endloop
endfacet
endsolid patch0322
solid patch0323
facet normal 0.0 1.0 0.0
outer loop
vertex 0.04336 0.00292 0.00884
vertex 0.04406 0.00292 0.00254
vertex 0.04336 0.00292 0.00254
endloop
endfacet
facet normal 0.0 1.0 0.0
outer loop
vertex 0.04406 0.00292 0.00254
vertex 0.04336 0.00292 0.00884
vertex 0.04406 0.00292 0.00884
endloop
endfacet
endsolid patch0323
solid patch0324
facet normal 0.0 0.0 1.0
outer loop
vertex 0.04406 0.00222 0.00884
vertex 0.04336 0.00292 0.00884
vertex 0.04336 0.00222 0.00884
endloop
endfacet
facet normal 0.0 0.0 1.0
outer loop
vertex 0.04336 0.00292 0.00884
vertex 0.04406 0.00222 0.00884
vertex 0.04406 0.00292 0.00884
endloop
endfacet
endsolid patch0324
solid patch0325
facet normal -1.0 0.0 0.0
outer loop
vertex 0.04336 0.00292 0.00884
vertex 0.04336 0.00222 0.00254
vertex 0.04336 0.00222 0.00884
endloop
endfacet
facet normal -1.0 0.0 0.0
outer loop
vertex 0.04336 0.00222 0.00254
vertex 0.04336 0.00292 0.00884
vertex 0.04336 0.00292 0.00254
endloop
endfacet
endsolid patch0325
solid patch0327
facet normal 0.0 -1.0 0.0
outer loop
vertex 0.04406 0.00222 0.00884
vertex 0.04336 0.00222 0.00254
vertex 0.04406 0.00222 0.00254
endloop
endfacet
facet normal 0.0 -1.0 0.0
outer loop
vertex 0.04336 0.00222 0.00254
vertex 0.04406 0.00222 0.00884
vertex 0.04336 0.00222 0.00884
endloop
endfacet
endsolid patch0327
solid patch0333
facet normal 1.0 0.0 0.0
outer loop
vertex 0.05168 0.00292 0.00254
vertex 0.05168 0.00222 0.00884
vertex 0.05168 0.00222 0.00254
endloop
endfacet
facet normal 1.0 0.0 0.0
outer loop
vertex 0.05168 0.00222 0.00884
vertex 0.05168 0.00292 0.00254
vertex 0.05168 0.00292 0.00884
endloop
endfacet
endsolid patch0333
solid patch0334
facet normal 0.0 1.0 0.0
outer loop
vertex 0.05098 0.00292 0.00884
vertex 0.05168 0.00292 0.00254
vertex 0.05098 0.00292 0.00254
endloop
endfacet
facet normal 0.0 1.0 0.0
outer loop
vertex 0.05168 0.00292 0.00254
vertex 0.05098 0.00292 0.00884
vertex 0.05168 0.00292 0.00884
endloop
endfacet
endsolid patch0334
solid patch0335
facet normal 0.0 0.0 1.0
outer loop
vertex 0.05168 0.00222 0.00884
vertex 0.05098 0.00292 0.00884
vertex 0.05098 0.00222 0.00884
endloop
endfacet
facet normal 0.0 0.0 1.0
outer loop
vertex 0.05098 0.00292 0.00884
vertex 0.05168 0.00222 0.00884
vertex 0.05168 0.00292 0.00884
endloop
endfacet
endsolid patch0335
solid patch0336
facet normal -1.0 0.0 0.0
outer loop
vertex 0.05098 0.00292 0.00884
vertex 0.05098 0.00222 0.00254
vertex 0.05098 0.00222 0.00884
endloop
endfacet
facet normal -1.0 0.0 0.0
outer loop
vertex 0.05098 0.00222 0.00254
vertex 0.05098 0.00292 0.00884
vertex 0.05098 0.00292 0.00254
endloop
endfacet
endsolid patch0336
solid patch0338
facet normal 0.0 -1.0 0.0
outer loop
vertex 0.05168 0.00222 0.00884
vertex 0.05098 0.00222 0.00254
vertex 0.05168 0.00222 0.00254
endloop
endfacet
facet normal 0.0 -1.0 0.0
outer loop
vertex 0.05098 0.00222 0.00254
vertex 0.05168 0.00222 0.00884
vertex 0.05098 0.00222 0.00884
endloop
endfacet
endsolid patch0338
solid patch0344
facet normal 1.0 0.0 0.0
outer loop
vertex 0.04152 0.00292 0.00254
vertex 0.04152 0.00222 0.00884
vertex 0.04152 0.00222 0.00254
endloop
endfacet
facet normal 1.0 0.0 0.0
outer loop
vertex 0.04152 0.00222 0.00884
vertex 0.04152 0.00292 0.00254
vertex 0.04152 0.00292 0.00884
endloop
endfacet
endsolid patch0344
solid patch0345
facet normal 0.0 1.0 0.0
outer loop
vertex 0.04082 0.00292 0.00884
vertex 0.04152 0.00292 0.00254
vertex 0.04082 0.00292 0.00254
endloop
endfacet
facet normal 0.0 1.0 0.0
outer loop
vertex 0.04152 0.00292 0.00254
vertex 0.04082 0.00292 0.00884
vertex 0.04152 0.00292 0.00884
endloop
endfacet
endsolid patch0345
solid patch0346
facet normal 0.0 0.0 1.0
outer loop
vertex 0.04152 0.00222 0.00884
vertex 0.04082 0.00292 0.00884
vertex 0.04082 0.00222 0.00884
endloop
endfacet
facet normal 0.0 0.0 1.0
outer loop
vertex 0.04082 0.00292 0.00884
vertex 0.04152 0.00222 0.00884
vertex 0.04152 0.00292 0.00884
endloop
endfacet
endsolid patch0346
solid patch0347
facet normal -1.0 0.0 0.0
outer loop
vertex 0.04082 0.00292 0.00884
vertex 0.04082 0.00222 0.00254
vertex 0.04082 0.00222 0.00884
endloop
endfacet
facet normal -1.0 0.0 0.0
outer loop
vertex 0.04082 0.00222 0.00254
vertex 0.04082 0.00292 0.00884
vertex 0.04082 0.00292 0.00254
endloop
endfacet
endsolid patch0347
solid patch0349
facet normal 0.0 -1.0 0.0
outer loop
vertex 0.04152 0.00222 0.00884
vertex 0.04082 0.00222 0.00254
vertex 0.04152 0.00222 0.00254
endloop
endfacet
facet normal 0.0 -1.0 0.0
outer loop
vertex 0.04082 0.00222 0.00254
vertex 0.04152 0.00222 0.00884
vertex 0.04082 0.00222 0.00884
endloop
endfacet
endsolid patch0349
solid patch0355
facet normal 1.0 0.0 0.0
outer loop
vertex 0.04914 0.00546 0.00254
vertex 0.04914 0.00476 0.00884
vertex 0.04914 0.00476 0.00254
endloop
endfacet
facet normal 1.0 0.0 0.0
outer loop
vertex 0.04914 0.00476 0.00884
vertex 0.04914 0.00546 0.00254
vertex 0.04914 0.00546 0.00884
endloop
endfacet
endsolid patch0355
solid patch0356
facet normal 0.0 1.0 0.0
outer loop
vertex 0.04844 0.00546 0.00884
vertex 0.04914 0.00546 0.00254
vertex 0.04844 0.00546 0.00254
endloop
endfacet
facet normal 0.0 1.0 0.0
outer loop
vertex 0.04914 0.00546 0.00254
vertex 0.04844 0.00546 0.00884
vertex 0.04914 0.00546 0.00884
endloop
endfacet
endsolid patch0356
solid patch0357
facet normal 0.0 0.0 1.0
outer loop
vertex 0.04914 0.00476 0.00884
vertex 0.04844 0.00546 0.00884
vertex 0.04844 0.00476 0.00884
endloop
endfacet
facet normal 0.0 0.0 1.0
outer loop
vertex 0.04844 0.00546 0.00884
vertex 0.04914 0.00476 0.00884
vertex 0.04914 0.00546 0.00884
endloop
endfacet
endsolid patch0357
solid patch0358
facet normal -1.0 0.0 0.0
outer loop
vertex 0.04844 0.00546 0.00884
vertex 0.04844 0.00476 0.00254
vertex 0.04844 0.00476 0.00884
endloop
endfacet
facet normal -1.0 0.0 0.0
outer loop
vertex 0.04844 0.00476 0.00254
vertex 0.04844 0.00546 0.00884
vertex 0.04844 0.00546 0.00254
endloop
endfacet
endsolid patch0358
solid patch0360
facet normal 0.0 -1.0 0.0
outer loop
vertex 0.04914 0.00476 0.00884
vertex 0.04844 0.00476 0.00254
vertex 0.04914 0.00476 0.00254
endloop
endfacet
facet normal 0.0 -1.0 0.0
outer loop
vertex 0.04844 0.00476 0.00254
vertex 0.04914 0.00476 0.00884
vertex 0.04844 0.00476 0.00884
endloop
endfacet
endsolid patch0360
solid patch0366
facet normal 1.0 0.0 0.0
outer loop
vertex 0.04914 0.00292 0.00254
vertex 0.04914 0.00222 0.00884
vertex 0.04914 0.00222 0.00254
endloop
endfacet
facet normal 1.0 0.0 0.0
outer loop
vertex 0.04914 0.00222 0.00884
vertex 0.04914 0.00292 0.00254
vertex 0.04914 0.00292 0.00884
endloop
endfacet
endsolid patch0366
solid patch0367
facet normal 0.0 1.0 0.0
outer loop
vertex 0.04844 0.00292 0.00884
vertex 0.04914 0.00292 0.00254
vertex 0.04844 0.00292 0.00254
endloop
endfacet
facet normal 0.0 1.0 0.0
outer loop
vertex 0.04914 0.00292 0.00254
vertex 0.04844 0.00292 0.00884
vertex 0.04914 0.00292 0.00884
endloop
endfacet
endsolid patch0367
solid patch0368
facet normal 0.0 0.0 1.0
outer loop
vertex 0.04914 0.00222 0.00884
vertex 0.04844 0.00292 0.00884
vertex 0.04844 0.00222 0.00884
endloop
endfacet
facet normal 0.0 0.0 1.0
outer loop
vertex 0.04844 0.00292 0.00884
vertex 0.04914 0.00222 0.00884
vertex 0.04914 0.00292 0.00884
endloop
endfacet
endsolid patch0368
solid patch0369
facet normal -1.0 0.0 0.0
outer loop
vertex 0.04844 0.00292 0.00884
vertex 0.04844 0.00222 0.00254
vertex 0.04844 0.00222 0.00884
endloop
endfacet
facet normal -1.0 0.0 0.0
outer loop
vertex 0.04844 0.00222 0.00254
vertex 0.04844 0.00292 0.00884
vertex 0.04844 0.00292 0.00254
endloop
endfacet
endsolid patch0369
solid patch0371
facet normal 0.0 -1.0 0.0
outer loop
vertex 0.04914 0.00222 0.00884
vertex 0.04844 0.00222 0.00254
vertex 0.04914 0.00222 0.00254
endloop
endfacet
facet normal 0.0 -1.0 0.0
outer loop
vertex 0.04844 0.00222 0.00254
vertex 0.04914 0.00222 0.00884
vertex 0.04844 0.00222 0.00884
endloop
endfacet
endsolid patch0371
solid patch0377
facet normal 1.0 0.0 0.0
outer loop
vertex 0.0466 0.00292 0.00254
vertex 0.0466 0.00222 0.00884
vertex 0.0466 0.00222 0.00254
endloop
endfacet
facet normal 1.0 0.0 0.0
outer loop
vertex 0.0466 0.00222 0.00884
vertex 0.0466 0.00292 0.00254
vertex 0.0466 0.00292 0.00884
endloop
endfacet
endsolid patch0377
solid patch0378
facet normal 0.0 1.0 0.0
outer loop
vertex 0.0459 0.00292 0.00884
vertex 0.0466 0.00292 0.00254
vertex 0.0459 0.00292 0.00254
endloop
endfacet
facet normal 0.0 1.0 0.0
outer loop
vertex 0.0466 0.00292 0.00254
vertex 0.0459 0.00292 0.00884
vertex 0.0466 0.00292 0.00884
endloop
endfacet
endsolid patch0378
solid patch0379
facet normal 0.0 0.0 1.0
outer loop
vertex 0.0466 0.00222 0.00884
vertex 0.0459 0.00292 0.00884
vertex 0.0459 0.00222 0.00884
endloop
endfacet
facet normal 0.0 0.0 1.0
outer loop
vertex 0.0459 0.00292 0.00884
vertex 0.0466 0.00222 0.00884
vertex 0.0466 0.00292 0.00884
endloop
endfacet
endsolid patch0379
solid patch0380
facet normal -1.0 0.0 0.0
outer loop
vertex 0.0459 0.00292 0.00884
vertex 0.0459 0.00222 0.00254
vertex 0.0459 0.00222 0.00884
endloop
endfacet
facet normal -1.0 0.0 0.0
outer loop
vertex 0.0459 0.00222 0.00254
vertex 0.0459 0.00292 0.00884
vertex 0.0459 0.00292 0.00254
endloop
endfacet
endsolid patch0380
solid patch0382
facet normal 0.0 -1.0 0.0
outer loop
vertex 0.0466 0.00222 0.00884
vertex 0.0459 0.00222 0.00254
vertex 0.0466 0.00222 0.00254
endloop
endfacet
facet normal 0.0 -1.0 0.0
outer loop
vertex 0.0459 0.00222 0.00254
vertex 0.0466 0.00222 0.00884
vertex 0.0459 0.00222 0.00884
endloop
endfacet
endsolid patch0382
solid patch0388
facet normal 1.0 0.0 0.0
outer loop
vertex 0.072 0.00292 0.00254
vertex 0.072 0.00222 0.00884
vertex 0.072 0.00222 0.00254
endloop
endfacet
facet normal 1.0 0.0 0.0
outer loop
vertex 0.072 0.00222 0.00884
vertex 0.072 0.00292 0.00254
vertex 0.072 0.00292 0.00884
endloop
endfacet
endsolid patch0388
solid patch0389
facet normal 0.0 1.0 0.0
outer loop
vertex 0.07130001 0.00292 0.00884
vertex 0.072 0.00292 0.00254
vertex 0.07130001 0.00292 0.00254
endloop
endfacet
facet normal 0.0 1.0 0.0
outer loop
vertex 0.072 0.00292 0.00254
vertex 0.07130001 0.00292 0.00884
vertex 0.072 0.00292 0.00884
endloop
endfacet
endsolid patch0389
solid patch0390
facet normal 0.0 0.0 1.0
outer loop
vertex 0.072 0.00222 0.00884
vertex 0.07130001 0.00292 0.00884
vertex 0.07130001 0.00222 0.00884
endloop
endfacet
facet normal 0.0 0.0 1.0
outer loop
vertex 0.07130001 0.00292 0.00884
vertex 0.072 0.00222 0.00884
vertex 0.072 0.00292 0.00884
endloop
endfacet
endsolid patch0390
solid patch0391
facet normal -1.0 0.0 0.0
outer loop
vertex 0.07130001 0.00292 0.00884
vertex 0.07130001 0.00222 0.00254
vertex 0.07130001 0.00222 0.00884
endloop
endfacet
facet normal -1.0 0.0 0.0
outer loop
vertex 0.07130001 0.00222 0.00254
vertex 0.07130001 0.00292 0.00884
vertex 0.07130001 0.00292 0.00254
endloop
endfacet
endsolid patch0391
solid patch0393
facet normal 0.0 -1.0 0.0
outer loop
vertex 0.072 0.00222 0.00884
vertex 0.07130001 0.00222 0.00254
vertex 0.072 0.00222 0.00254
endloop
endfacet
facet normal 0.0 -1.0 0.0
outer loop
vertex 0.07130001 0.00222 0.00254
vertex 0.072 0.00222 0.00884
vertex 0.07130001 0.00222 0.00884
endloop
endfacet
endsolid patch0393
solid patch0399
facet normal 1.0 0.0 0.0
outer loop
vertex 0.06438 0.00292 0.00254
vertex 0.06438 0.00222 0.00884
vertex 0.06438 0.00222 0.00254
endloop
endfacet
facet normal 1.0 0.0 0.0
outer loop
vertex 0.06438 0.00222 0.00884
vertex 0.06438 0.00292 0.00254
vertex 0.06438 0.00292 0.00884
endloop
endfacet
endsolid patch0399
solid patch0400
facet normal 0.0 1.0 0.0
outer loop
vertex 0.06368 0.00292 0.00884
vertex 0.06438 0.00292 0.00254
vertex 0.06368 0.00292 0.00254
endloop
endfacet
facet normal 0.0 1.0 0.0
outer loop
vertex 0.06438 0.00292 0.00254
vertex 0.06368 0.00292 0.00884
vertex 0.06438 0.00292 0.00884
endloop
endfacet
endsolid patch0400
solid patch0401
facet normal 0.0 0.0 1.0
outer loop
vertex 0.06438 0.00222 0.00884
vertex 0.06368 0.00292 0.00884
vertex 0.06368 0.00222 0.00884
endloop
endfacet
facet normal 0.0 0.0 1.0
outer loop
vertex 0.06368 0.00292 0.00884
vertex 0.06438 0.00222 0.00884
vertex 0.06438 0.00292 0.00884
endloop
endfacet
endsolid patch0401
solid patch0402
facet normal -1.0 0.0 0.0
outer loop
vertex 0.06368 0.00292 0.00884
vertex 0.06368 0.00222 0.00254
vertex 0.06368 0.00222 0.00884
endloop
endfacet
facet normal -1.0 0.0 0.0
outer loop
vertex 0.06368 0.00222 0.00254
vertex 0.06368 0.00292 0.00884
vertex 0.06368 0.00292 0.00254
endloop
endfacet
endsolid patch0402
solid patch0404
facet normal 0.0 -1.0 0.0
outer loop
vertex 0.06438 0.00222 0.00884
vertex 0.06368 0.00222 0.00254
vertex 0.06438 0.00222 0.00254
endloop
endfacet
facet normal 0.0 -1.0 0.0
outer loop
vertex 0.06368 0.00222 0.00254
vertex 0.06438 0.00222 0.00884
vertex 0.06368 0.00222 0.00884
endloop
endfacet
endsolid patch0404
solid patch0410
facet normal 1.0 0.0 0.0
outer loop
vertex 0.03898 0.00292 0.00254
vertex 0.03898 0.00222 0.00884
vertex 0.03898 0.00222 0.00254
endloop
endfacet
facet normal 1.0 0.0 0.0
outer loop
vertex 0.03898 0.00222 0.00884
vertex 0.03898 0.00292 0.00254
vertex 0.03898 0.00292 0.00884
endloop
endfacet
endsolid patch0410
solid patch0411
facet normal 0.0 1.0 0.0
outer loop
vertex 0.03828 0.00292 0.00884
vertex 0.03898 0.00292 0.00254
vertex 0.03828 0.00292 0.00254
endloop
endfacet
facet normal 0.0 1.0 0.0
outer loop
vertex 0.03898 0.00292 0.00254
vertex 0.03828 0.00292 0.00884
vertex 0.03898 0.00292 0.00884
endloop
endfacet
endsolid patch0411
solid patch0412
facet normal 0.0 0.0 1.0
outer loop
vertex 0.03898 0.00222 0.00884
vertex 0.03828 0.00292 0.00884
vertex 0.03828 0.00222 0.00884
endloop
endfacet
facet normal 0.0 0.0 1.0
outer loop
vertex 0.03828 0.00292 0.00884
vertex 0.03898 0.00222 0.00884
vertex 0.03898 0.00292 0.00884
endloop
endfacet
endsolid patch0412
solid patch0413
facet normal -1.0 0.0 0.0
outer loop
vertex 0.03828 0.00292 0.00884
vertex 0.03828 0.00222 0.00254
vertex 0.03828 0.00222 0.00884
endloop
endfacet
facet normal -1.0 0.0 0.0
outer loop
vertex 0.03828 0.00222 0.00254
vertex 0.03828 0.00292 0.00884
vertex 0.03828 0.00292 0.00254
endloop
endfacet
endsolid patch0413
solid patch0415
facet normal 0.0 -1.0 0.0
outer loop
vertex 0.03898 0.00222 0.00884
vertex 0.03828 0.00222 0.00254
vertex 0.03898 0.00222 0.00254
endloop
endfacet
facet normal 0.0 -1.0 0.0
outer loop
vertex 0.03828 0.00222 0.00254
vertex 0.03898 0.00222 0.00884
vertex 0.03828 0.00222 0.00884
endloop
endfacet
endsolid patch0415
solid patch0421
facet normal 1.0 0.0 0.0
outer loop
vertex 0.07454 0.00292 0.00254
vertex 0.07454 0.00222 0.00884
vertex 0.07454 0.00222 0.00254
endloop
endfacet
facet normal 1.0 0.0 0.0
outer loop
vertex 0.07454 0.00222 0.00884
vertex 0.07454 0.00292 0.00254
vertex 0.07454 0.00292 0.00884
endloop
endfacet
endsolid patch0421
solid patch0422
facet normal 0.0 1.0 0.0
outer loop
vertex 0.07384 0.00292 0.00884
vertex 0.07454 0.00292 0.00254
vertex 0.07384 0.00292 0.00254
endloop
endfacet
facet normal 0.0 1.0 0.0
outer loop
vertex 0.07454 0.00292 0.00254
vertex 0.07384 0.00292 0.00884
vertex 0.07454 0.00292 0.00884
endloop
endfacet
endsolid patch0422
solid patch0423
facet normal 0.0 0.0 1.0
outer loop
vertex 0.07454 0.00222 0.00884
vertex 0.07384 0.00292 0.00884
vertex 0.07384 0.00222 0.00884
endloop
endfacet
facet normal 0.0 0.0 1.0
outer loop
vertex 0.07384 0.00292 0.00884
vertex 0.07454 0.00222 0.00884
vertex 0.07454 0.00292 0.00884
endloop
endfacet
endsolid patch0423
solid patch0424
facet normal -1.0 0.0 0.0
outer loop
vertex 0.07384 0.00292 0.00884
vertex 0.07384 0.00222 0.00254
vertex 0.07384 0.00222 0.00884
endloop
endfacet
facet normal -1.0 0.0 0.0
outer loop
vertex 0.07384 0.00222 0.00254
vertex 0.07384 0.00292 0.00884
vertex 0.07384 0.00292 0.00254
endloop
endfacet
endsolid patch0424
solid patch0426
facet normal 0.0 -1.0 0.0
outer loop
vertex 0.07454 0.00222 0.00884
vertex 0.07384 0.00222 0.00254
vertex 0.07454 0.00222 0.00254
endloop
endfacet
facet normal 0.0 -1.0 0.0
outer loop
vertex 0.07384 0.00222 0.00254
vertex 0.07454 0.00222 0.00884
vertex 0.07384 0.00222 0.00884
endloop
endfacet
endsolid patch0426
solid patch0432
facet normal 1.0 0.0 0.0
outer loop
vertex 0.02882 0.00292 0.00254
vertex 0.02882 0.00222 0.00884
vertex 0.02882 0.00222 0.00254
endloop
endfacet
facet normal 1.0 0.0 0.0
outer loop
vertex 0.02882 0.00222 0.00884
vertex 0.02882 0.00292 0.00254
vertex 0.02882 0.00292 0.00884
endloop
endfacet
endsolid patch0432
solid patch0433
facet normal 0.0 1.0 0.0
outer loop
vertex 0.02812 0.00292 0.00884
vertex 0.02882 0.00292 0.00254
vertex 0.02812 0.00292 0.00254
endloop
endfacet
facet normal 0.0 1.0 0.0
outer loop
vertex 0.02882 0.00292 0.00254
vertex 0.02812 0.00292 0.00884
vertex 0.02882 0.00292 0.00884
endloop
endfacet
endsolid patch0433
solid patch0434
facet normal 0.0 0.0 1.0
outer loop
vertex 0.02882 0.00222 0.00884
vertex 0.02812 0.00292 0.00884
vertex 0.02812 0.00222 0.00884
endloop
endfacet
facet normal 0.0 0.0 1.0
outer loop
vertex 0.02812 0.00292 0.00884
vertex 0.02882 0.00222 0.00884
vertex 0.02882 0.00292 0.00884
endloop
endfacet
endsolid patch0434
solid patch0435
facet normal -1.0 0.0 0.0
outer loop
vertex 0.02812 0.00292 0.00884
vertex 0.02812 0.00222 0.00254
vertex 0.02812 0.00222 0.00884
endloop
endfacet
facet normal -1.0 0.0 0.0
outer loop
vertex 0.02812 0.00222 0.00254
vertex 0.02812 0.00292 0.00884
vertex 0.02812 0.00292 0.00254
endloop
endfacet
endsolid patch0435
solid patch0437
facet normal 0.0 -1.0 0.0
outer loop
vertex 0.02882 0.00222 0.00884
vertex 0.02812 0.00222 0.00254
vertex 0.02882 0.00222 0.00254
endloop
endfacet
facet normal 0.0 -1.0 0.0
outer loop
vertex 0.02812 0.00222 0.00254
vertex 0.02882 0.00222 0.00884
vertex 0.02812 0.00222 0.00884
endloop
endfacet
endsolid patch0437
solid patch0443
facet normal 1.0 0.0 0.0
outer loop
vertex 0.05676 0.00292 0.00254
vertex 0.05676 0.00222 0.00884
vertex 0.05676 0.00222 0.00254
endloop
endfacet
facet normal 1.0 0.0 0.0
outer loop
vertex 0.05676 0.00222 0.00884
vertex 0.05676 0.00292 0.00254
vertex 0.05676 0.00292 0.00884
endloop
endfacet
endsolid patch0443
solid patch0444
facet normal 0.0 1.0 0.0
outer loop
vertex 0.05606 0.00292 0.00884
vertex 0.05676 0.00292 0.00254
vertex 0.05606 0.00292 0.00254
endloop
endfacet
facet normal 0.0 1.0 0.0
outer loop
vertex 0.05676 0.00292 0.00254
vertex 0.05606 0.00292 0.00884
vertex 0.05676 0.00292 0.00884
endloop
endfacet
endsolid patch0444
solid patch0445
facet normal 0.0 0.0 1.0
outer loop
vertex 0.05676 0.00222 0.00884
vertex 0.05606 0.00292 0.00884
vertex 0.05606 0.00222 0.00884
endloop
endfacet
facet normal 0.0 0.0 1.0
outer loop
vertex 0.05606 0.00292 0.00884
vertex 0.05676 0.00222 0.00884
vertex 0.05676 0.00292 0.00884
endloop
endfacet
endsolid patch0445
solid patch0446
facet normal -1.0 0.0 0.0
outer loop
vertex 0.05606 0.00292 0.00884
vertex 0.05606 0.00222 0.00254
vertex 0.05606 0.00222 0.00884
endloop
endfacet
facet normal -1.0 0.0 0.0
outer loop
vertex 0.05606 0.00222 0.00254
vertex 0.05606 0.00292 0.00884
vertex 0.05606 0.00292 0.00254
endloop
endfacet
endsolid patch0446
solid patch0448
facet normal 0.0 -1.0 0.0
outer loop
vertex 0.05676 0.00222 0.00884
vertex 0.05606 0.00222 0.00254
vertex 0.05676 0.00222 0.00254
endloop
endfacet
facet normal 0.0 -1.0 0.0
outer loop
vertex 0.05606 0.00222 0.00254
vertex 0.05676 0.00222 0.00884
vertex 0.05606 0.00222 0.00884
endloop
endfacet
endsolid patch0448
solid patch0454
facet normal 1.0 0.0 0.0
outer loop
vertex 0.03644 0.00546 0.00254
vertex 0.03644 0.00476 0.00884
vertex 0.03644 0.00476 0.00254
endloop
endfacet
facet normal 1.0 0.0 0.0
outer loop
vertex 0.03644 0.00476 0.00884
vertex 0.03644 0.00546 0.00254
vertex 0.03644 0.00546 0.00884
endloop
endfacet
endsolid patch0454
solid patch0455
facet normal 0.0 1.0 0.0
outer loop
vertex 0.03574 0.00546 0.00884
vertex 0.03644 0.00546 0.00254
vertex 0.03574 0.00546 0.00254
endloop
endfacet
facet normal 0.0 1.0 0.0
outer loop
vertex 0.03644 0.00546 0.00254
vertex 0.03574 0.00546 0.00884
vertex 0.03644 0.00546 0.00884
endloop
endfacet
endsolid patch0455
solid patch0456
facet normal 0.0 0.0 1.0
outer loop
vertex 0.03644 0.00476 0.00884
vertex 0.03574 0.00546 0.00884
vertex 0.03574 0.00476 0.00884
endloop
endfacet
facet normal 0.0 0.0 1.0
outer loop
vertex 0.03574 0.00546 0.00884
vertex 0.03644 0.00476 0.00884
vertex 0.03644 0.00546 0.00884
endloop
endfacet
endsolid patch0456
solid patch0457
facet normal -1.0 0.0 0.0
outer loop
vertex 0.03574 0.00546 0.00884
vertex 0.03574 0.00476 0.00254
vertex 0.03574 0.00476 0.00884
endloop
endfacet
facet normal -1.0 0.0 0.0
outer loop
vertex 0.03574 0.00476 0.00254
vertex 0.03574 0.00546 0.00884
vertex 0.03574 0.00546 0.00254
endloop
endfacet
endsolid patch0457
solid patch0459
facet normal 0.0 -1.0 0.0
outer loop
vertex 0.03644 0.00476 0.00884
vertex 0.03574 0.00476 0.00254
vertex 0.03644 0.00476 0.00254
endloop
endfacet
facet normal 0.0 -1.0 0.0
outer loop
vertex 0.03574 0.00476 0.00254
vertex 0.03644 0.00476 0.00884
vertex 0.03574 0.00476 0.00884
endloop
endfacet
endsolid patch0459
solid patch0465
facet normal 1.0 0.0 0.0
outer loop
vertex 0.03644 0.00292 0.00254
vertex 0.03644 0.00222 0.00884
vertex 0.03644 0.00222 0.00254
endloop
endfacet
facet normal 1.0 0.0 0.0
outer loop
vertex 0.03644 0.00222 0.00884
vertex 0.03644 0.00292 0.00254
vertex 0.03644 0.00292 0.00884
endloop
endfacet
endsolid patch0465
solid patch0466
facet normal 0.0 1.0 0.0
outer loop
vertex 0.03574 0.00292 0.00884
vertex 0.03644 0.00292 0.00254
vertex 0.03574 0.00292 0.00254
endloop
endfacet
facet normal 0.0 1.0 0.0
outer loop
vertex 0.03644 0.00292 0.00254
vertex 0.03574 0.00292 0.00884
vertex 0.03644 0.00292 0.00884
endloop
endfacet
endsolid patch0466
solid patch0467
facet normal 0.0 0.0 1.0
outer loop
vertex 0.03644 0.00222 0.00884
vertex 0.03574 0.00292 0.00884
vertex 0.03574 0.00222 0.00884
endloop
endfacet
facet normal 0.0 0.0 1.0
outer loop
vertex 0.03574 0.00292 0.00884
vertex 0.03644 0.00222 0.00884
vertex 0.03644 0.00292 0.00884
endloop
endfacet
endsolid patch0467
solid patch0468
facet normal -1.0 0.0 0.0
outer loop
vertex 0.03574 0.00292 0.00884
vertex 0.03574 0.00222 0.00254
vertex 0.03574 0.00222 0.00884
endloop
endfacet
facet normal -1.0 0.0 0.0
outer loop
vertex 0.03574 0.00222 0.00254
vertex 0.03574 0.00292 0.00884
vertex 0.03574 0.00292 0.00254
endloop
endfacet
endsolid patch0468
solid patch0470
facet normal 0.0 -1.0 0.0
outer loop
vertex 0.03644 0.00222 0.00884
vertex 0.03574 0.00222 0.00254
vertex 0.03644 0.00222 0.00254
endloop
endfacet
facet normal 0.0 -1.0 0.0
outer loop
vertex 0.03574 0.00222 0.00254
vertex 0.03644 0.00222 0.00884
vertex 0.03574 0.00222 0.00884
endloop
endfacet
endsolid patch0470
solid patch0476
facet normal 1.0 0.0 0.0
outer loop
vertex 0.0339 0.00292 0.00254
vertex 0.0339 0.00222 0.00884
vertex 0.0339 0.00222 0.00254
endloop
endfacet
facet normal 1.0 0.0 0.0
outer loop
vertex 0.0339 0.00222 0.00884
vertex 0.0339 0.00292 0.00254
vertex 0.0339 0.00292 0.00884
endloop
endfacet
endsolid patch0476
solid patch0477
facet normal 0.0 1.0 0.0
outer loop
vertex 0.0332 0.00292 0.00884
vertex 0.0339 0.00292 0.00254
vertex 0.0332 0.00292 0.00254
endloop
endfacet
facet normal 0.0 1.0 0.0
outer loop
vertex 0.0339 0.00292 0.00254
vertex 0.0332 0.00292 0.00884
vertex 0.0339 0.00292 0.00884
endloop
endfacet
endsolid patch0477
solid patch0478
facet normal 0.0 0.0 1.0
outer loop
vertex 0.0339 0.00222 0.00884
vertex 0.0332 0.00292 0.00884
vertex 0.0332 0.00222 0.00884
endloop
endfacet
facet normal 0.0 0.0 1.0
outer loop
vertex 0.0332 0.00292 0.00884
vertex 0.0339 0.00222 0.00884
vertex 0.0339 0.00292 0.00884
endloop
endfacet
endsolid patch0478
solid patch0479
facet normal -1.0 0.0 0.0
outer loop
vertex 0.0332 0.00292 0.00884
vertex 0.0332 0.00222 0.00254
vertex 0.0332 0.00222 0.00884
endloop
endfacet
facet normal -1.0 0.0 0.0
outer loop
vertex 0.0332 0.00222 0.00254
vertex 0.0332 0.00292 0.00884
vertex 0.0332 0.00292 0.00254
endloop
endfacet
endsolid patch0479
solid patch0481
facet normal 0.0 -1.0 0.0
outer loop
vertex 0.0339 0.00222 0.00884
vertex 0.0332 0.00222 0.00254
vertex 0.0339 0.00222 0.00254
endloop
endfacet
facet normal 0.0 -1.0 0.0
outer loop
vertex 0.0332 0.00222 0.00254
vertex 0.0339 0.00222 0.00884
vertex 0.0332 0.00222 0.00884
endloop
endfacet
endsolid patch0481
solid patch0487
facet normal 1.0 0.0 0.0
outer loop
vertex 0.03898 0.00546 0.00254
vertex 0.03898 0.00476 0.00884
vertex 0.03898 0.00476 0.00254
endloop
endfacet
facet normal 1.0 0.0 0.0
outer loop
vertex 0.03898 0.00476 0.00884
vertex 0.03898 0.00546 0.00254
vertex 0.03898 0.00546 0.00884
endloop
endfacet
endsolid patch0487
solid patch0488
facet normal 0.0 1.0 0.0
outer loop
vertex 0.03828 0.00546 0.00884
vertex 0.03898 0.00546 0.00254
vertex 0.03828 0.00546 0.00254
endloop
endfacet
facet normal 0.0 1.0 0.0
outer loop
vertex 0.03898 0.00546 0.00254
vertex 0.03828 0.00546 0.00884
vertex 0.03898 0.00546 0.00884
endloop
endfacet
endsolid patch0488
solid patch0489
facet normal 0.0 0.0 1.0
outer loop
vertex 0.03898 0.00476 0.00884
vertex 0.03828 0.00546 0.00884
vertex 0.03828 0.00476 0.00884
endloop
endfacet
facet normal 0.0 0.0 1.0
outer loop
vertex 0.03828 0.00546 0.00884
vertex 0.03898 0.00476 0.00884
vertex 0.03898 0.00546 0.00884
endloop
endfacet
endsolid patch0489
solid patch0490
facet normal -1.0 0.0 0.0
outer loop
vertex 0.03828 0.00546 0.00884
vertex 0.03828 0.00476 0.00254
vertex 0.03828 0.00476 0.00884
endloop
endfacet
facet normal -1.0 0.0 0.0
outer loop
vertex 0.03828 0.00476 0.00254
vertex 0.03828 0.00546 0.00884
vertex 0.03828 0.00546 0.00254
endloop
endfacet
endsolid patch0490
solid patch0492
facet normal 0.0 -1.0 0.0
outer loop
vertex 0.03898 0.00476 0.00884
vertex 0.03828 0.00476 0.00254
vertex 0.03898 0.00476 0.00254
endloop
endfacet
facet normal 0.0 -1.0 0.0
outer loop
vertex 0.03828 0.00476 0.00254
vertex 0.03898 0.00476 0.00884
vertex 0.03828 0.00476 0.00884
endloop
endfacet
endsolid patch0492
